<svg width="22" height="22" viewBox="0 0 22 22" fill="none" xmlns="http://www.w3.org/2000/svg">
<path fill-rule="evenodd" clip-rule="evenodd" d="M20.7072 19.4574L14.3992 13.1203C15.5309 11.5142 16.018 9.54155 15.764 7.59322C15.51 5.64489 14.5335 3.86306 13.0278 2.60073C11.5222 1.33839 9.59726 0.687665 7.6345 0.777487C5.67174 0.867309 3.81434 1.69108 2.43027 3.08565C1.0462 4.48023 0.236448 6.34383 0.161474 8.30721C0.0865002 10.2706 0.751771 12.1905 2.02546 13.6866C3.29914 15.1827 5.08833 16.1457 7.03852 16.385C8.98871 16.6242 10.9576 16.1222 12.5552 14.9784L18.8632 21.3164C18.9845 21.4403 19.1293 21.5389 19.2891 21.6065C19.4489 21.674 19.6206 21.709 19.7941 21.7096C19.9676 21.7102 20.1394 21.6763 20.2997 21.6099C20.46 21.5435 20.6054 21.4459 20.7276 21.3227C20.8498 21.1996 20.9464 21.0534 21.0116 20.8926C21.0768 20.7318 21.1094 20.5597 21.1075 20.3863C21.1056 20.2128 21.0692 20.0414 21.0005 19.8821C20.9317 19.7228 20.832 19.5788 20.7072 19.4583V19.4574ZM8.01816 13.8153C6.97721 13.8211 5.95798 13.5176 5.08967 12.9435C4.22135 12.3694 3.54303 11.5504 3.14069 10.5903C2.73835 9.63022 2.6301 8.57228 2.82966 7.55062C3.02921 6.52896 3.5276 5.58957 4.26163 4.85146C4.99567 4.11335 5.93231 3.60977 6.95286 3.40456C7.9734 3.19936 9.03189 3.30179 9.99418 3.69881C10.9565 4.09584 11.7792 4.7696 12.3581 5.63473C12.9371 6.49985 13.2461 7.51734 13.2462 8.55831C13.2462 9.94754 12.6963 11.2804 11.7167 12.2654C10.7371 13.2505 9.40738 13.8077 8.01816 13.8153Z" fill="#22262A"/>
</svg>
